<svg width="13" height="13" viewBox="0 0 13 13" fill="none" xmlns="http://www.w3.org/2000/svg">
<path d="M4.2341 3.2578C3.73837 3.35097 3.00777 4.19857 3.33017 4.52097L5.3118 6.50173L3.33017 8.4825C2.93367 8.879 4.12273 10.0668 4.51923 9.6707L6.50087 7.68993L8.4825 9.6707C8.879 10.0672 10.0676 8.87813 9.67157 8.4825L7.68993 6.50173L9.67157 4.52097C10.0681 4.12447 8.879 2.9367 8.4825 3.33277L6.50087 5.31353L4.51923 3.33277C4.44427 3.25867 4.34807 3.23613 4.2341 3.2578ZM6.5 0C2.90983 0 0 2.91027 0 6.5C0 10.0897 2.90983 13 6.5 13C10.0902 13 13 10.0897 13 6.5C13 2.91027 10.0902 0 6.5 0ZM6.5 1.625C9.1923 1.625 11.375 3.8077 11.375 6.5C11.375 9.1923 9.1923 11.375 6.5 11.375C3.8077 11.375 1.625 9.1923 1.625 6.5C1.62543 3.8077 3.8077 1.625 6.5 1.625Z" fill="#FF0000"/>
</svg>
