<svg width="13" height="13" viewBox="0 0 13 13" fill="none" xmlns="http://www.w3.org/2000/svg">
<g clip-path="url(#clip0_1_2975)">
<path d="M8.93629 1.75481C8.16304 1.30751 7.2653 1.05151 6.30779 1.05151C3.40442 1.05151 1.05078 3.40516 1.05078 6.30852C1.05078 7.14949 1.24824 7.94429 1.59933 8.64921C1.69263 8.83651 1.72368 9.05063 1.66959 9.25276L1.35648 10.423C1.22056 10.931 1.68531 11.3957 2.19331 11.2598L3.36354 10.9467C3.5657 10.8926 3.77981 10.9237 3.96712 11.017C4.672 11.3681 5.46683 11.5655 6.30779 11.5655C9.21113 11.5655 11.5648 9.21186 11.5648 6.30852C11.5648 5.35101 11.3088 4.45326 10.8615 3.68002" stroke="#FF6116" stroke-width="1.40187" stroke-linecap="round"/>
</g>
<rect x="0.0140187" y="0.0140187" width="12.5888" height="12.5888" stroke="#FF6116" stroke-width="0.0280374"/>
<defs>
<clipPath id="clip0_1_2975">
<rect width="12.6168" height="12.6168" fill="white"/>
</clipPath>
</defs>
</svg>
