<svg width="12" height="12" viewBox="0 0 12 12" fill="none" xmlns="http://www.w3.org/2000/svg">
<path fill-rule="evenodd" clip-rule="evenodd" d="M1.22782 5.5276C1.22762 4.84132 1.39175 4.16496 1.70649 3.55511C2.02123 2.94526 2.47742 2.41964 3.03692 2.02222C3.59641 1.6248 4.24294 1.36713 4.92241 1.27076C5.60189 1.17439 6.29457 1.24213 6.94251 1.46831C7.09632 1.52188 7.26511 1.51217 7.41176 1.44129C7.5584 1.37041 7.67089 1.24419 7.72446 1.09038C7.77804 0.936567 7.76832 0.767773 7.69745 0.621128C7.62657 0.474483 7.50034 0.361999 7.34653 0.308422C6.21511 -0.0863053 4.98603 -0.102571 3.84455 0.262077C2.70307 0.626726 1.71105 1.35253 1.01801 2.33009C0.324959 3.30765 -0.0315568 4.484 0.0021934 5.68183C0.0359436 6.87966 0.45813 8.03406 1.20512 8.97105C1.95211 9.90804 2.98343 10.5768 4.14363 10.8766C5.30383 11.1764 6.53004 11.091 7.63744 10.6332C8.74485 10.1754 9.67344 9.36999 10.2833 8.33846C10.8931 7.30693 11.1511 6.10512 11.0184 4.91419C11.0095 4.83404 10.9849 4.75642 10.9461 4.68576C10.9072 4.61511 10.8548 4.5528 10.7919 4.5024C10.7289 4.45199 10.6566 4.41448 10.5792 4.39201C10.5018 4.36953 10.4206 4.36252 10.3405 4.37139C10.2603 4.38026 10.1827 4.40483 10.1121 4.4437C10.0414 4.48257 9.97911 4.53497 9.92871 4.59792C9.8783 4.66086 9.84079 4.73312 9.81831 4.81057C9.79584 4.88801 9.78883 4.96912 9.7977 5.04927C9.86238 5.63007 9.80793 6.21796 9.6377 6.777C9.46747 7.33605 9.18502 7.8545 8.80762 8.30069C8.43022 8.74687 7.9658 9.11141 7.44274 9.37202C6.91968 9.63263 6.34897 9.78384 5.76549 9.81641C5.18201 9.84897 4.59801 9.76221 4.0492 9.56143C3.50039 9.36064 2.99829 9.05005 2.57358 8.64864C2.14887 8.24722 1.81048 7.76342 1.5791 7.22679C1.34771 6.69016 1.22818 6.11198 1.22782 5.5276ZM10.2846 2.24995C10.3924 2.12782 10.4473 1.96786 10.4372 1.80527C10.427 1.64267 10.3527 1.49076 10.2306 1.38296C10.1084 1.27515 9.94849 1.22028 9.7859 1.23041C9.6233 1.24055 9.4714 1.31486 9.36359 1.43699L5.41237 5.90706L3.45794 4.3149C3.39545 4.26394 3.32353 4.22579 3.2463 4.20262C3.16906 4.17946 3.08802 4.17173 3.00779 4.17988C2.84578 4.19635 2.69694 4.2765 2.59402 4.40271C2.54305 4.4652 2.5049 4.53712 2.48173 4.61435C2.45857 4.69159 2.45084 4.77263 2.45899 4.85286C2.47546 5.01488 2.55561 5.16372 2.68182 5.26664L5.09431 7.2315C5.21721 7.3315 5.37401 7.38011 5.53193 7.36718C5.68985 7.35425 5.83665 7.28078 5.94165 7.16212L10.2846 2.24995Z" fill="black"/>
</svg>
