<svg width="14" height="18" viewBox="0 0 14 18" fill="none" xmlns="http://www.w3.org/2000/svg">
<path d="M6.89517 0C10.7032 0 13.7903 1.54354 13.7903 3.44758C13.7903 5.35162 10.7032 6.89517 6.89517 6.89517C3.08707 6.89517 0 5.35162 0 3.44758C0 1.54354 3.08707 0 6.89517 0Z" fill="black"/>
<path d="M12.7987 7.48155C13.122 7.31988 13.4597 7.12487 13.7903 6.89526V8.73396C13.7903 10.638 10.7032 12.1815 6.89517 12.1815C3.08707 12.1815 0 10.638 0 8.73396V6.89526C0.330646 7.12487 0.668348 7.31988 0.991674 7.48155C2.62127 8.29634 4.71167 8.73396 6.89517 8.73396C9.07866 8.73396 11.169 8.29634 12.7987 7.48155Z" fill="black"/>
<path d="M0 12.1814V14.0201C0 15.9242 3.08707 17.4677 6.89517 17.4677C10.7032 17.4677 13.7903 15.9242 13.7903 14.0201V12.1814C13.4597 12.411 13.122 12.606 12.7987 12.7677C11.169 13.5825 9.07866 14.0201 6.89517 14.0201C4.71167 14.0201 2.62127 13.5825 0.991674 12.7677C0.668348 12.606 0.330646 12.411 0 12.1814Z" fill="black"/>
</svg>
