<svg width="44" height="44" viewBox="0 0 44 44" fill="none" xmlns="http://www.w3.org/2000/svg">
<path fill-rule="evenodd" clip-rule="evenodd" d="M4.88801 22.0056C4.8872 19.2735 5.54061 16.5809 6.7936 14.1531C8.04659 11.7252 9.86273 9.63272 12.0901 8.05056C14.3175 6.4684 16.8913 5.4426 19.5964 5.05895C22.3014 4.67531 25.059 4.94497 27.6384 5.8454C28.2508 6.05869 28.9227 6.02 29.5065 5.73784C30.0903 5.45569 30.5381 4.95317 30.7514 4.34084C30.9647 3.72852 30.926 3.05654 30.6439 2.47274C30.3617 1.88894 29.8592 1.44114 29.2469 1.22784C24.7426 -0.343585 19.8496 -0.408339 15.3053 1.04334C10.7611 2.49502 6.81178 5.38447 4.05273 9.27619C1.29368 13.1679 -0.125629 17.851 0.00873202 22.6196C0.143093 27.3882 1.82384 31.984 4.79764 35.7142C7.77145 39.4444 11.8772 42.1069 16.496 43.3004C21.1148 44.4939 25.9964 44.1537 30.405 42.3311C34.8136 40.5086 38.5104 37.3024 40.9381 33.1958C43.3658 29.0892 44.393 24.3048 43.8646 19.5636C43.8293 19.2445 43.7315 18.9355 43.5768 18.6543C43.4221 18.373 43.2134 18.1249 42.9629 17.9243C42.7123 17.7236 42.4246 17.5743 42.1163 17.4848C41.808 17.3953 41.4851 17.3674 41.166 17.4027C40.8469 17.438 40.5379 17.5359 40.2566 17.6906C39.9753 17.8453 39.7273 18.0539 39.5266 18.3045C39.326 18.5551 39.1766 18.8428 39.0872 19.1511C38.9977 19.4594 38.9698 19.7823 39.0051 20.1014C39.2626 22.4136 39.0458 24.754 38.3681 26.9796C37.6904 29.2052 36.566 31.2692 35.0635 33.0454C33.5611 34.8217 31.7122 36.273 29.6299 37.3105C27.5476 38.348 25.2755 38.9499 22.9527 39.0796C20.6298 39.2092 18.3049 38.8638 16.1201 38.0645C13.9352 37.2652 11.9363 36.0287 10.2455 34.4306C8.55476 32.8326 7.20762 30.9065 6.28645 28.7702C5.36529 26.6338 4.88945 24.3321 4.88801 22.0056ZM40.9435 8.95718C41.3727 8.47095 41.5912 7.83414 41.5508 7.18685C41.5105 6.53956 41.2147 5.9348 40.7284 5.50562C40.2422 5.07644 39.6054 4.858 38.9581 4.89834C38.3108 4.93868 37.7061 5.2345 37.2769 5.72073L21.5469 23.5163L13.7662 17.1778C13.5174 16.975 13.2311 16.8231 12.9237 16.7308C12.6162 16.6386 12.2935 16.6079 11.9742 16.6403C11.3292 16.7059 10.7366 17.025 10.3269 17.5274C10.124 17.7762 9.97213 18.0625 9.8799 18.37C9.78767 18.6774 9.7569 19.0001 9.78936 19.3195C9.85492 19.9645 10.174 20.557 10.6765 20.9667L20.2807 28.7889C20.77 29.187 21.3942 29.3806 22.0229 29.3291C22.6515 29.2776 23.236 28.9851 23.654 28.5127L40.9435 8.95718Z" fill="#13E92C"/>
</svg>
