<svg width="30" height="45" viewBox="0 0 30 45" fill="none" xmlns="http://www.w3.org/2000/svg">
<path d="M15 23.2207C21.4113 23.2207 26.6094 18.0226 26.6094 11.6103C26.6094 5.19994 21.4113 0 15 0C8.58785 0 3.39062 5.19994 3.39062 11.6103C3.39062 18.0226 8.58785 23.2207 15 23.2207Z" fill="#FF6116"/>
<path d="M29.868 34.4059C29.3497 31.3011 26.7171 27.0093 24.8308 25.0002C24.3207 24.4565 23.435 24.6826 23.1238 24.8753C20.7571 26.3345 17.979 27.1858 14.9999 27.1858C12.021 27.1858 9.24283 26.3345 6.8762 24.8753C6.56506 24.6826 5.67932 24.4565 5.16906 25.0002C3.28293 27.0093 0.650402 31.3011 0.132001 34.4059C-1.14164 42.0501 7.02464 44.812 15 44.812C22.9754 44.812 31.1417 42.0501 29.868 34.4059Z" fill="#FF6116"/>
</svg>
