<svg width="77" height="77" viewBox="0 0 77 77" fill="none" xmlns="http://www.w3.org/2000/svg">
<path d="M28.875 54.5417C31.6033 52.5195 34.9214 51.3334 38.5 51.3334C42.0786 51.3334 45.3966 52.5195 48.125 54.5417" stroke="#FF6116" stroke-width="4.8125" stroke-linecap="round"/>
<path d="M48.1253 38.5C49.8972 38.5 51.3337 36.3454 51.3337 33.6875C51.3337 31.0296 49.8972 28.875 48.1253 28.875C46.3534 28.875 44.917 31.0296 44.917 33.6875C44.917 36.3454 46.3534 38.5 48.1253 38.5Z" fill="#FF6116"/>
<path d="M28.8753 38.5C30.6472 38.5 32.0837 36.3454 32.0837 33.6875C32.0837 31.0296 30.6472 28.875 28.8753 28.875C27.1034 28.875 25.667 31.0296 25.667 33.6875C25.667 36.3454 27.1034 38.5 28.8753 38.5Z" fill="#FF6116"/>
<path d="M70.5837 38.5C70.5837 53.624 70.5837 61.1864 65.8851 65.8847C61.1868 70.5833 53.6244 70.5833 38.5003 70.5833C23.3761 70.5833 15.814 70.5833 11.1155 65.8847C6.41699 61.1864 6.41699 53.624 6.41699 38.5C6.41699 23.3757 6.41699 15.8136 11.1155 11.1151C15.814 6.41663 23.3761 6.41663 38.5003 6.41663C53.6244 6.41663 61.1868 6.41663 65.8851 11.1151C69.0093 14.2392 70.0562 18.6293 70.4069 25.6666" stroke="#FF6116" stroke-width="4.8125" stroke-linecap="round"/>
</svg>
