<svg width="37" height="37" viewBox="0 0 37 37" fill="none" xmlns="http://www.w3.org/2000/svg">
<path d="M11.9892 9.22475C10.5855 9.48856 8.51676 11.8886 9.42966 12.8015L15.0408 18.4102L9.42966 24.0189C8.30694 25.1417 11.6739 28.5049 12.7966 27.3834L18.4078 21.7747L24.0189 27.3834C25.1417 28.5062 28.5074 25.1392 27.3859 24.0189L21.7747 18.4102L27.3859 12.8015C28.5086 11.6788 25.1417 8.31552 24.0189 9.43702L18.4078 15.0457L12.7966 9.43702C12.5843 9.2272 12.3119 9.1634 11.9892 9.22475ZM18.4053 0C8.23945 0 0 8.24068 0 18.4053C0 28.57 8.23945 36.8106 18.4053 36.8106C28.5712 36.8106 36.8106 28.57 36.8106 18.4053C36.8106 8.24068 28.5712 0 18.4053 0ZM18.4053 4.60133C26.0288 4.60133 32.2093 10.7818 32.2093 18.4053C32.2093 26.0288 26.0288 32.2093 18.4053 32.2093C10.7818 32.2093 4.60133 26.0288 4.60133 18.4053C4.60256 10.7818 10.7818 4.60133 18.4053 4.60133Z" fill="white"/>
</svg>
