<svg width="25" height="22" viewBox="0 0 25 22" fill="none" xmlns="http://www.w3.org/2000/svg">
<path fill-rule="evenodd" clip-rule="evenodd" d="M19.028 0C19.6157 0 20.1794 0.207181 20.5951 0.575979L23.7292 3.35702C24.1449 3.72582 24.3784 4.226 24.3784 4.74756V18.6818C24.3784 20.3109 22.8901 21.6315 21.0541 21.6315H3.32432C1.48836 21.6315 0 20.3109 0 18.6818V2.94975C0 1.32065 1.48836 0 3.32432 0H19.028ZM3.32432 1.9665C2.71234 1.9665 2.21622 2.40672 2.21622 2.94975V18.6818C2.21622 19.2248 2.71234 19.665 3.32432 19.665H4.43243V13.7655C4.43243 12.1364 5.92079 10.8158 7.75676 10.8158H16.6216C18.4576 10.8158 19.9459 12.1364 19.9459 13.7655V19.665H21.0541C21.6661 19.665 22.1622 19.2248 22.1622 18.6818V5.73081C22.1622 5.20925 21.9287 4.70907 21.513 4.34028L19.487 2.54248C19.0713 2.17368 18.5076 1.9665 17.9199 1.9665H17.7297V3.933C17.7297 5.5621 16.2414 6.88276 14.4054 6.88276H9.97297C8.137 6.88276 6.64865 5.5621 6.64865 3.933V1.9665H3.32432ZM17.7297 19.665V13.7655C17.7297 13.2225 17.2336 12.7823 16.6216 12.7823H7.75676C7.14477 12.7823 6.64865 13.2225 6.64865 13.7655V19.665H17.7297ZM8.86486 1.9665H15.5135V3.933C15.5135 4.47603 15.0174 4.91625 14.4054 4.91625H9.97297C9.36099 4.91625 8.86486 4.47603 8.86486 3.933V1.9665Z" fill="white"/>
</svg>
