<svg width="20" height="20" viewBox="0 0 13 13" fill="none" xmlns="http://www.w3.org/2000/svg">
<path d="M4.41591 10.0935V11.986M8.20095 10.0935V11.986M3.15422 11.986H9.46263M0.630859 6.30843H11.986M6.30843 8.20095H6.31474M2.64955 10.0935H9.96731C10.6739 10.0935 11.0272 10.0935 11.2971 9.95595C11.5345 9.83502 11.7275 9.64198 11.8485 9.4046C11.986 9.13472 11.986 8.78139 11.986 8.07478V2.64955C11.986 1.94295 11.986 1.58964 11.8485 1.31975C11.7275 1.08235 11.5345 0.889334 11.2971 0.768376C11.0272 0.630859 10.6739 0.630859 9.96731 0.630859H2.64955C1.94295 0.630859 1.58964 0.630859 1.31975 0.768376C1.08235 0.889334 0.889334 1.08235 0.768376 1.31975C0.630859 1.58964 0.630859 1.94294 0.630859 2.64955V8.07478C0.630859 8.78139 0.630859 9.13472 0.768376 9.4046C0.889334 9.64198 1.08235 9.83502 1.31975 9.95595C1.58964 10.0935 1.94294 10.0935 2.64955 10.0935Z" stroke="white" stroke-width="1.26168" stroke-linecap="round" stroke-linejoin="round"/>
</svg>
